<mxfile host="app.diagrams.net" modified="2024-02-05T11:49:46.392Z" agent="Mozilla/5.0 (Windows NT 10.0; Win64; x64) AppleWebKit/537.36 (KHTML, like Gecko) Chrome/121.0.0.0 Safari/537.36" etag="6VFSlcVEoB3Mit8mkpaF" version="23.1.1" type="github">
  <diagram name="Page-1" id="cn0t22297gPH5VrivUQc">
    <mxGraphModel dx="941" dy="511" grid="1" gridSize="10" guides="1" tooltips="1" connect="1" arrows="1" fold="1" page="1" pageScale="1" pageWidth="850" pageHeight="1100" math="0" shadow="0">
      <root>
        <mxCell id="0" />
        <mxCell id="1" parent="0" />
        <object label="win 10 client {WAZUH}&lt;br&gt;" id="xSx-NrKWDLgr-4c5szI6-1">
          <mxCell style="fontColor=#0066CC;verticalAlign=top;verticalLabelPosition=bottom;labelPosition=center;align=center;html=1;outlineConnect=0;fillColor=#CCCCCC;strokeColor=#6881B3;gradientColor=none;gradientDirection=north;strokeWidth=2;shape=mxgraph.networks.pc;" vertex="1" parent="1">
            <mxGeometry x="375" y="770" width="65" height="50" as="geometry" />
          </mxCell>
        </object>
        <mxCell id="xSx-NrKWDLgr-4c5szI6-2" value="router&lt;br&gt;&lt;br&gt;" style="image;html=1;image=img/lib/clip_art/networking/Router_Icon_128x128.png" vertex="1" parent="1">
          <mxGeometry x="375" y="570" width="62" height="70" as="geometry" />
        </mxCell>
        <mxCell id="xSx-NrKWDLgr-4c5szI6-3" value="shuffle" style="image;aspect=fixed;perimeter=ellipsePerimeter;html=1;align=center;shadow=0;dashed=0;spacingTop=3;image=img/lib/active_directory/internet_cloud.svg;" vertex="1" parent="1">
          <mxGeometry x="370" y="290" width="63" height="39.69" as="geometry" />
        </mxCell>
        <mxCell id="xSx-NrKWDLgr-4c5szI6-5" value="wazuh mgr&lt;br&gt;" style="image;aspect=fixed;perimeter=ellipsePerimeter;html=1;align=center;shadow=0;dashed=0;spacingTop=3;image=img/lib/active_directory/internet_cloud.svg;" vertex="1" parent="1">
          <mxGeometry x="170" y="380" width="63" height="39.69" as="geometry" />
        </mxCell>
        <mxCell id="xSx-NrKWDLgr-4c5szI6-6" value="internet&lt;br&gt;" style="image;aspect=fixed;perimeter=ellipsePerimeter;html=1;align=center;shadow=0;dashed=0;spacingTop=3;image=img/lib/active_directory/internet_cloud.svg;" vertex="1" parent="1">
          <mxGeometry x="370" y="450" width="63" height="39.69" as="geometry" />
        </mxCell>
        <mxCell id="xSx-NrKWDLgr-4c5szI6-7" value="the hive&amp;nbsp;" style="image;aspect=fixed;perimeter=ellipsePerimeter;html=1;align=center;shadow=0;dashed=0;spacingTop=3;image=img/lib/active_directory/internet_cloud.svg;" vertex="1" parent="1">
          <mxGeometry x="580" y="380" width="63" height="39.69" as="geometry" />
        </mxCell>
      </root>
    </mxGraphModel>
  </diagram>
</mxfile>
